<svg width="1511" height="110" viewBox="0 0 1511 110" fill="none" xmlns="http://www.w3.org/2000/svg">
<path opacity="0.25" d="M0 0V46.29C60.1756 68.49 130.437 78.46 198.948 74.29C287.543 68.92 370.611 40.98 459.344 36.79C552.321 32.43 645.121 53.67 734.094 72.05C821.317 90.05 908.237 96.93 997.764 85.13C1043.28 79.13 1085.72 67.29 1129.28 55.79C1245.93 25 1401.45 -14.29 1511 52.47V0H0Z" fill="white"/>
<path opacity="0.5" d="M0 0V15.81C16.3692 36.92 34.8034 56.86 60.0497 72.05C125.174 111.27 207.763 111 282.784 91.58C322.007 81.43 358.447 65.51 395.693 51.78C447.218 32.78 502.382 5.78 560.43 2.11C606.087 -0.74 649.705 11.53 684.584 33.67C724.587 59.06 763.055 95.67 815.071 106.67C865.992 117.46 917.504 99.98 965.076 82.39C1012.65 64.8 1059.71 43.39 1112.3 39.34C1187.51 33.49 1254.94 62.22 1324.97 78.18C1363 86.84 1399.26 84.35 1434.63 70.68C1462.87 59.79 1495.07 43.75 1511 21.44V0H0Z" fill="white"/>
<path d="M0 0V5.63C188.787 59 395.492 71.32 599.149 42.57C653.293 34.93 705.209 22.45 759.832 16.11C834.122 7.48 901.463 28.35 968.299 51.51C1042.5 77.22 1115.62 95.24 1197.72 90C1306.68 83 1414.88 44.29 1511 5.19V0H0Z" fill="white"/>
</svg>
